<?xml version="1.0" encoding="UTF-8"?>
<!DOCTYPE svg PUBLIC "-//W3C//DTD SVG 1.1//EN" "http://www.w3.org/Graphics/SVG/1.1/DTD/svg11.dtd">
<svg version="1.1" xmlns="http://www.w3.org/2000/svg" xmlns:xlink="http://www.w3.org/1999/xlink" x="0" y="0" width="48" height="48" viewBox="0, 0, 48, 48">
  <g id="Layer_1">
    <g>
      <path d="M14.378,40.396 L24,32.791 L33.622,40.396 L24,48 z" fill="#2E2E2E"/>
      <path d="M24,32.791 L33.622,40.396 L24,48 L14.378,40.396 L24,32.791 z M24,36.615 L19.216,40.396 L24,44.176 L28.784,40.396 L24,36.615 z" fill="#5A5A5C"/>
    </g>
    <g>
      <path d="M7.999,0.001 L39.999,-0.001 C44.417,-0.001 47.999,3.669 47.999,8.196 L48.001,33.255 C48.001,37.783 44.419,41.453 40.001,41.453 L8.001,41.455 C3.583,41.455 0.001,37.785 0.001,33.258 L-0.001,8.199 C-0.001,3.671 3.581,0.001 7.999,0.001 z" fill="#2E2E2E"/>
      <path d="M39.999,-0.001 C44.417,-0.001 47.999,3.669 47.999,8.196 L48.001,33.255 C48.001,37.783 44.419,41.453 40.001,41.453 L8.001,41.455 C3.583,41.455 0.001,37.785 0.001,33.258 L-0.001,8.199 C-0.001,3.671 3.581,0.001 7.999,0.001 L39.999,-0.001 z M39.999,2.999 L7.999,3.001 C5.254,3.001 2.999,5.312 2.999,8.199 L3.001,33.257 C3.001,36.144 5.256,38.455 8.001,38.455 L40.001,38.453 C42.746,38.453 45.001,36.142 45.001,33.255 L44.999,8.197 C44.999,5.31 42.744,2.999 39.999,2.999 z" fill="#5A5A5C"/>
    </g>
    <path d="M14.378,36.558 L24,28.954 L33.622,36.558 L24,44.163 z" fill="#2E2E2E"/>
    <path d="M19.995,3.396 L28.005,3.396 C28.813,3.396 29.468,4.051 29.468,4.86 L29.468,12.869 C29.468,13.677 28.813,14.333 28.005,14.333 L19.995,14.333 C19.187,14.333 18.532,13.677 18.532,12.869 L18.532,4.86 C18.532,4.051 19.187,3.396 19.995,3.396 z" fill="#ADCF9F"/>
    <path d="M19.995,15.259 L28.005,15.259 C28.813,15.259 29.468,15.914 29.468,16.722 L29.468,24.732 C29.468,25.54 28.813,26.195 28.005,26.195 L19.995,26.195 C19.187,26.195 18.532,25.54 18.532,24.732 L18.532,16.722 C18.532,15.914 19.187,15.259 19.995,15.259 z" fill="#E1B2AF"/>
    <path d="M19.995,27.201 L28.005,27.201 C28.813,27.201 29.468,27.856 29.468,28.664 L29.468,36.674 C29.468,37.482 28.813,38.138 28.005,38.138 L19.995,38.138 C19.187,38.138 18.532,37.482 18.532,36.674 L18.532,28.664 C18.532,27.856 19.187,27.201 19.995,27.201 z" fill="#E5B296"/>
    <path d="M7.436,15.259 L15.445,15.259 C16.254,15.259 16.909,15.914 16.909,16.722 L16.909,24.732 C16.909,25.54 16.254,26.195 15.445,26.195 L7.436,26.195 C6.628,26.195 5.972,25.54 5.972,24.732 L5.972,16.722 C5.972,15.914 6.628,15.259 7.436,15.259 z" fill="#9FB1D4"/>
    <path d="M32.504,15.259 L40.514,15.259 C41.322,15.259 41.977,15.914 41.977,16.722 L41.977,24.732 C41.977,25.54 41.322,26.195 40.514,26.195 L32.504,26.195 C31.696,26.195 31.041,25.54 31.041,24.732 L31.041,16.722 C31.041,15.914 31.696,15.259 32.504,15.259 z" fill="#EACECC"/>
  </g>
</svg>
